<svg class="dotted-line" fill="#808080" version="1.1" id="Layer_1" xmlns="http://www.w3.org/2000/svg" xmlns:xlink="http://www.w3.org/1999/xlink" x="0px" y="0px"
	 viewBox="9 9 942 2" style="enable-background:new 9 9 942 2;" xml:space="preserve">
<g id="lgn-0">
	<path d="M10,11c1.3,0,1.3-2,0-2S8.7,11,10,11L10,11z"/>
	<path d="M20,11c1.3,0,1.3-2,0-2S18.7,11,20,11L20,11z"/>
	<path d="M30,11c1.3,0,1.3-2,0-2S28.7,11,30,11L30,11z"/>
	<path d="M40,11c1.3,0,1.3-2,0-2S38.7,11,40,11L40,11z"/>
	<path d="M50,11c1.3,0,1.3-2,0-2S48.7,11,50,11L50,11z"/>
	<path d="M60,11c1.3,0,1.3-2,0-2S58.7,11,60,11L60,11z"/>
	<path d="M70,11c1.3,0,1.3-2,0-2S68.7,11,70,11L70,11z"/>
	<path d="M80,11c1.3,0,1.3-2,0-2S78.7,11,80,11L80,11z"/>
	<path d="M90,11c1.3,0,1.3-2,0-2S88.7,11,90,11L90,11z"/>
	<path d="M100,11c1.3,0,1.3-2,0-2S98.7,11,100,11L100,11z"/>
	<path d="M110,11c1.3,0,1.3-2,0-2S108.7,11,110,11L110,11z"/>
	<path d="M120,11c1.3,0,1.3-2,0-2S118.7,11,120,11L120,11z"/>
	<path d="M130,11c1.3,0,1.3-2,0-2S128.7,11,130,11L130,11z"/>
	<path d="M140,11c1.3,0,1.3-2,0-2S138.7,11,140,11L140,11z"/>
	<path d="M150,11c1.3,0,1.3-2,0-2S148.7,11,150,11L150,11z"/>
	<path d="M160,11c1.3,0,1.3-2,0-2S158.7,11,160,11L160,11z"/>
	<path d="M170,11c1.3,0,1.3-2,0-2S168.7,11,170,11L170,11z"/>
	<path d="M180,11c1.3,0,1.3-2,0-2S178.7,11,180,11L180,11z"/>
	<path d="M190,11c1.3,0,1.3-2,0-2S188.7,11,190,11L190,11z"/>
	<path d="M200,11c1.3,0,1.3-2,0-2S198.7,11,200,11L200,11z"/>
	<path d="M210,11c1.3,0,1.3-2,0-2S208.7,11,210,11L210,11z"/>
	<path d="M220,11c1.3,0,1.3-2,0-2S218.7,11,220,11L220,11z"/>
	<path d="M230,11c1.3,0,1.3-2,0-2S228.7,11,230,11L230,11z"/>
	<path d="M240,11c1.3,0,1.3-2,0-2S238.7,11,240,11L240,11z"/>
	<path d="M250,11c1.3,0,1.3-2,0-2S248.7,11,250,11L250,11z"/>
	<path d="M260,11c1.3,0,1.3-2,0-2S258.7,11,260,11L260,11z"/>
	<path d="M270,11c1.3,0,1.3-2,0-2S268.7,11,270,11L270,11z"/>
	<path d="M280,11c1.3,0,1.3-2,0-2S278.7,11,280,11L280,11z"/>
	<path d="M290,11c1.3,0,1.3-2,0-2S288.7,11,290,11L290,11z"/>
	<path d="M300,11c1.3,0,1.3-2,0-2S298.7,11,300,11L300,11z"/>
	<path d="M310,11c1.3,0,1.3-2,0-2S308.7,11,310,11L310,11z"/>
	<path d="M320,11c1.3,0,1.3-2,0-2S318.7,11,320,11L320,11z"/>
	<path d="M330,11c1.3,0,1.3-2,0-2S328.7,11,330,11L330,11z"/>
	<path d="M340,11c1.3,0,1.3-2,0-2S338.7,11,340,11L340,11z"/>
	<path d="M350,11c1.3,0,1.3-2,0-2S348.7,11,350,11L350,11z"/>
	<path d="M360,11c1.3,0,1.3-2,0-2S358.7,11,360,11L360,11z"/>
	<path d="M370,11c1.3,0,1.3-2,0-2S368.7,11,370,11L370,11z"/>
	<path d="M380,11c1.3,0,1.3-2,0-2S378.7,11,380,11L380,11z"/>
	<path d="M390,11c1.3,0,1.3-2,0-2S388.7,11,390,11L390,11z"/>
	<path d="M400,11c1.3,0,1.3-2,0-2S398.7,11,400,11L400,11z"/>
	<path d="M410,11c1.3,0,1.3-2,0-2S408.7,11,410,11L410,11z"/>
	<path d="M420,11c1.3,0,1.3-2,0-2S418.7,11,420,11L420,11z"/>
	<path d="M430,11c1.3,0,1.3-2,0-2S428.7,11,430,11L430,11z"/>
	<path d="M440,11c1.3,0,1.3-2,0-2S438.7,11,440,11L440,11z"/>
	<path d="M450,11c1.3,0,1.3-2,0-2S448.7,11,450,11L450,11z"/>
	<path d="M460,11c1.3,0,1.3-2,0-2S458.7,11,460,11L460,11z"/>
	<path d="M470,11c1.3,0,1.3-2,0-2S468.7,11,470,11L470,11z"/>
	<path d="M480,11c1.3,0,1.3-2,0-2S478.7,11,480,11L480,11z"/>
	<path d="M490,11c1.3,0,1.3-2,0-2S488.7,11,490,11L490,11z"/>
	<path d="M500,11c1.3,0,1.3-2,0-2S498.7,11,500,11L500,11z"/>
	<path d="M510,11c1.3,0,1.3-2,0-2S508.7,11,510,11L510,11z"/>
	<path d="M520,11c1.3,0,1.3-2,0-2S518.7,11,520,11L520,11z"/>
	<path d="M530,11c1.3,0,1.3-2,0-2S528.7,11,530,11L530,11z"/>
	<path d="M540,11c1.3,0,1.3-2,0-2S538.7,11,540,11L540,11z"/>
	<path d="M550,11c1.3,0,1.3-2,0-2S548.7,11,550,11L550,11z"/>
	<path d="M560,11c1.3,0,1.3-2,0-2S558.7,11,560,11L560,11z"/>
	<path d="M570,11c1.3,0,1.3-2,0-2S568.7,11,570,11L570,11z"/>
	<path d="M580,11c1.3,0,1.3-2,0-2S578.7,11,580,11L580,11z"/>
	<path d="M590,11c1.3,0,1.3-2,0-2S588.7,11,590,11L590,11z"/>
	<path d="M600,11c1.3,0,1.3-2,0-2S598.7,11,600,11L600,11z"/>
	<path d="M610,11c1.3,0,1.3-2,0-2S608.7,11,610,11L610,11z"/>
	<path d="M620,11c1.3,0,1.3-2,0-2S618.7,11,620,11L620,11z"/>
	<path d="M630,11c1.3,0,1.3-2,0-2S628.7,11,630,11L630,11z"/>
	<path d="M640,11c1.3,0,1.3-2,0-2S638.7,11,640,11L640,11z"/>
	<path d="M650,11c1.3,0,1.3-2,0-2S648.7,11,650,11L650,11z"/>
	<path d="M660,11c1.3,0,1.3-2,0-2S658.7,11,660,11L660,11z"/>
	<path d="M670,11c1.3,0,1.3-2,0-2S668.7,11,670,11L670,11z"/>
	<path d="M680,11c1.3,0,1.3-2,0-2S678.7,11,680,11L680,11z"/>
	<path d="M690,11c1.3,0,1.3-2,0-2S688.7,11,690,11L690,11z"/>
	<path d="M700,11c1.3,0,1.3-2,0-2S698.7,11,700,11L700,11z"/>
	<path d="M710,11c1.3,0,1.3-2,0-2S708.7,11,710,11L710,11z"/>
	<path d="M720,11c1.3,0,1.3-2,0-2S718.7,11,720,11L720,11z"/>
	<path d="M730,11c1.3,0,1.3-2,0-2S728.7,11,730,11L730,11z"/>
	<path d="M740,11c1.3,0,1.3-2,0-2S738.7,11,740,11L740,11z"/>
	<path d="M750,11c1.3,0,1.3-2,0-2S748.7,11,750,11L750,11z"/>
	<path d="M760,11c1.3,0,1.3-2,0-2S758.7,11,760,11L760,11z"/>
	<path d="M770,11c1.3,0,1.3-2,0-2S768.7,11,770,11L770,11z"/>
	<path d="M780,11c1.3,0,1.3-2,0-2S778.7,11,780,11L780,11z"/>
	<path d="M790,11c1.3,0,1.3-2,0-2S788.7,11,790,11L790,11z"/>
	<path d="M800,11c1.3,0,1.3-2,0-2S798.7,11,800,11L800,11z"/>
	<path d="M810,11c1.3,0,1.3-2,0-2S808.7,11,810,11L810,11z"/>
	<path d="M820,11c1.3,0,1.3-2,0-2S818.7,11,820,11L820,11z"/>
	<path d="M830,11c1.3,0,1.3-2,0-2S828.7,11,830,11L830,11z"/>
	<path d="M840,11c1.3,0,1.3-2,0-2S838.7,11,840,11L840,11z"/>
	<path d="M850,11c1.3,0,1.3-2,0-2S848.7,11,850,11L850,11z"/>
	<path d="M860,11c1.3,0,1.3-2,0-2S858.7,11,860,11L860,11z"/>
	<path d="M870,11c1.3,0,1.3-2,0-2S868.7,11,870,11L870,11z"/>
	<path d="M880,11c1.3,0,1.3-2,0-2S878.7,11,880,11L880,11z"/>
	<path d="M890,11c1.3,0,1.3-2,0-2S888.7,11,890,11L890,11z"/>
	<path d="M900,11c1.3,0,1.3-2,0-2S898.7,11,900,11L900,11z"/>
	<path d="M910,11c1.3,0,1.3-2,0-2S908.7,11,910,11L910,11z"/>
	<path d="M920,11c1.3,0,1.3-2,0-2S918.7,11,920,11L920,11z"/>
	<path d="M930,11c1.3,0,1.3-2,0-2S928.7,11,930,11L930,11z"/>
	<path d="M940,11c1.3,0,1.3-2,0-2S938.7,11,940,11L940,11z"/>
	<path d="M950,11c1.3,0,1.3-2,0-2S948.7,11,950,11L950,11z"/>
</g>
</svg>